<svg id="svg" version="1.1" width="600" height="366" xmlns="http://www.w3.org/2000/svg" xmlns:xlink="http://www.w3.org/1999/xlink" style=""><g id="svgg"><path id="path0" d="M219.852 15.500 C 219.263 15.958,213.697 25.933,207.482 37.667 C 201.267 49.400,190.779 69.200,184.176 81.667 C 177.572 94.133,167.226 113.633,161.183 125.000 C 142.054 160.984,135.333 174.355,135.333 176.424 C 135.333 178.814,153.208 206.348,155.110 206.888 C 159.690 208.188,180.103 209.516,181.044 208.575 C 181.891 207.728,184.776 196.454,187.459 183.500 L 188.184 180.000 217.759 180.000 C 234.025 180.000,247.331 180.225,247.327 180.500 C 247.309 182.098,251.519 206.589,252.027 207.833 C 253.021 210.273,282.602 208.754,285.586 206.110 C 291.151 201.180,309.333 178.532,309.333 176.530 C 309.333 174.542,280.190 117.365,273.044 105.333 C 270.761 101.489,267.456 95.273,241.670 46.333 C 225.695 16.014,224.873 14.667,222.333 14.667 C 221.557 14.667,220.440 15.042,219.852 15.500 " stroke="#000000" fill="none" stroke-width="3" class="vegHAWcq_0"></path></g><style data-made-with="vivus-instant">.vegHAWcq_0{stroke-dasharray:621 623;stroke-dashoffset:622;animation:vegHAWcq_draw_0 2500ms linear 0ms infinite,vegHAWcq_fade 2500ms linear 0ms infinite;}@keyframes vegHAWcq_draw{100%{stroke-dashoffset:0;}}@keyframes vegHAWcq_fade{0%{stroke-opacity:1;}84%{stroke-opacity:1;}100%{stroke-opacity:0;}}@keyframes vegHAWcq_draw_0{12%{stroke-dashoffset: 622}52%{ stroke-dashoffset: 0;}100%{ stroke-dashoffset: 0;}}</style></svg>